<svg xmlns="http://www.w3.org/2000/svg" width="1470.912" height="305.106" viewBox="0 0 1470.912 305.106">
  <g id="BriBooks" transform="translate(-80.833 -227.191)">
    <path id="Path_14" data-name="Path 14" d="M59.725,2.315Q47.687,1.389,42.131-4.861t-5.556-13.2a21.938,21.938,0,0,1,2.315-8.8l-.463.926V-220.38a3.543,3.543,0,0,1-2.083.231,7.022,7.022,0,0,0-2.083-.231q-9.723,0-15.741-5.324A16.914,16.914,0,0,1,12.5-238.9q0-10.186,11.343-19.445a109.587,109.587,0,0,1,27.548-15.973,207.2,207.2,0,0,1,33.566-10.649q17.362-3.935,29.4-3.935,21.76,0,39.122,6.945A97.649,97.649,0,0,1,183.11-263.9a80.117,80.117,0,0,1,18.751,24.538q6.482,13.427,6.482,25.927,0,16.2-9.26,32.64a99.04,99.04,0,0,1-24.075,28.473q22.223,12.038,33.1,29.631t10.88,36.576a68.543,68.543,0,0,1-4.861,25A87.151,87.151,0,0,1,200.7-37.965a102.618,102.618,0,0,1-20.14,18.982A98.625,98.625,0,0,1,156.025-6.019,172.875,172.875,0,0,1,121.533.926,360.535,360.535,0,0,1,85.189,2.778h-12.5q-6.019,0-12.5-.463Zm98.152-115.283a86.793,86.793,0,0,0-21.76-9.954,135.471,135.471,0,0,0-24.538-4.861q-6.482.926-13.427,1.62t-14.352.694v87.5q10.186,0,25.464-1.157a124.1,124.1,0,0,0,29.4-5.787A68.138,68.138,0,0,0,162.97-58.567q10.186-9.028,10.186-24.77a38.219,38.219,0,0,0-3.7-16.9A31.445,31.445,0,0,0,157.877-112.968ZM83.8-169.915q6.482,0,12.5.231t12.5.694a68.794,68.794,0,0,0,15.278-3.472,88.036,88.036,0,0,0,17.825-8.1,54.444,54.444,0,0,0,14.584-12.5,26.378,26.378,0,0,0,6.019-17.13,29.352,29.352,0,0,0-4.63-16.667A36.862,36.862,0,0,0,145.84-238.2a62.918,62.918,0,0,0-16.2-6.713,68.881,68.881,0,0,0-17.593-2.315A86.022,86.022,0,0,0,83.8-242.6ZM272.234-158.34q-8.8-5.093-12.269-9.954a17.59,17.59,0,0,1-3.472-10.417,17.334,17.334,0,0,1,6.25-13.427q6.25-5.556,16.436-5.556,6.945,0,15.973,3.7a56.063,56.063,0,0,1,15.047,8.8,146.983,146.983,0,0,1,28.936-18.519,70.737,70.737,0,0,1,30.788-6.945q4.63,0,14.121,2.315a77.9,77.9,0,0,1,18.519,7.176,59.685,59.685,0,0,1,15.973,12.5,25.666,25.666,0,0,1,6.945,17.825,17.131,17.131,0,0,1-6.25,13.658,22.431,22.431,0,0,1-15.047,5.324,18.828,18.828,0,0,1-10.649-2.778,76.281,76.281,0,0,1-8.334-6.482,53.443,53.443,0,0,0-7.639-6.25q-4.4-3.009-8.1-3.009-5.093,0-12.038,3.7a115.266,115.266,0,0,0-13.889,8.8,151.875,151.875,0,0,0-13.658,11.343q-6.713,6.25-11.343,10.88v121.3q-.463,11.575-7.639,17.13a24.239,24.239,0,0,1-15.047,5.556,22.689,22.689,0,0,1-14.815-5.324q-6.482-5.324-7.871-15.973V-157.877ZM506.041-16.2Q505.578-4.63,498.633.926a23.905,23.905,0,0,1-15.278,5.556,23.326,23.326,0,0,1-14.815-5.093q-6.482-5.093-7.871-15.741L459.28-190.286q2.315-9.723,8.334-14.584a22.132,22.132,0,0,1,14.352-4.861,24.283,24.283,0,0,1,13.89,4.4q6.482,4.4,8.8,13.658Zm-50-247.7a24.951,24.951,0,0,1,7.639-18.288,24.951,24.951,0,0,1,18.288-7.639,25.493,25.493,0,0,1,18.751,7.639,24.951,24.951,0,0,1,7.639,18.288,24.2,24.2,0,0,1-7.639,18.056,25.907,25.907,0,0,1-18.751,7.408,25.345,25.345,0,0,1-18.288-7.408A24.2,24.2,0,0,1,456.039-263.9Z" transform="translate(68.332 523.037)" fill="#f99232"/>
    <path id="Path_15" data-name="Path 15" d="M59.725,2.315Q47.687,1.389,42.131-4.861t-5.556-13.2a21.938,21.938,0,0,1,2.315-8.8l-.463.926V-220.38a3.543,3.543,0,0,1-2.083.231,7.022,7.022,0,0,0-2.083-.231q-9.723,0-15.741-5.324A16.914,16.914,0,0,1,12.5-238.9q0-10.186,11.343-19.445a109.587,109.587,0,0,1,27.548-15.973,207.2,207.2,0,0,1,33.566-10.649q17.362-3.935,29.4-3.935,21.76,0,39.122,6.945A97.649,97.649,0,0,1,183.11-263.9a80.117,80.117,0,0,1,18.751,24.538q6.482,13.427,6.482,25.927,0,16.2-9.26,32.64a99.04,99.04,0,0,1-24.075,28.473q22.223,12.038,33.1,29.631t10.88,36.576a68.543,68.543,0,0,1-4.861,25A87.151,87.151,0,0,1,200.7-37.965a102.618,102.618,0,0,1-20.14,18.982A98.625,98.625,0,0,1,156.025-6.019,172.875,172.875,0,0,1,121.533.926,360.535,360.535,0,0,1,85.189,2.778h-12.5q-6.019,0-12.5-.463Zm98.152-115.283a86.793,86.793,0,0,0-21.76-9.954,135.471,135.471,0,0,0-24.538-4.861q-6.482.926-13.427,1.62t-14.352.694v87.5q10.186,0,25.464-1.157a124.1,124.1,0,0,0,29.4-5.787A68.138,68.138,0,0,0,162.97-58.567q10.186-9.028,10.186-24.77a38.219,38.219,0,0,0-3.7-16.9A31.445,31.445,0,0,0,157.877-112.968ZM83.8-169.915q6.482,0,12.5.231t12.5.694a68.794,68.794,0,0,0,15.278-3.472,88.036,88.036,0,0,0,17.825-8.1,54.444,54.444,0,0,0,14.584-12.5,26.378,26.378,0,0,0,6.019-17.13,29.352,29.352,0,0,0-4.63-16.667A36.862,36.862,0,0,0,145.84-238.2a62.918,62.918,0,0,0-16.2-6.713,68.881,68.881,0,0,0-17.593-2.315A86.022,86.022,0,0,0,83.8-242.6ZM631.509-18.056q-.463,11.112-6.945,16.667a22.729,22.729,0,0,1-15.278,5.556A24.607,24.607,0,0,1,594.471-.926q-6.945-5.093-8.334-15.278V-276.4q2.315-9.723,8.334-14.584a21.471,21.471,0,0,1,13.889-4.861,23.948,23.948,0,0,1,14.121,4.4q6.25,4.4,9.028,13.658v128.709a159.325,159.325,0,0,0,17.825-12.732q8.1-6.713,16.2-14.815t16.667-17.825q8.565-9.723,19.214-21.3a31.923,31.923,0,0,1,9.954-5.787,29.92,29.92,0,0,1,9.491-1.62q9.26,0,15.278,5.556a17.614,17.614,0,0,1,6.019,13.427q0,7.408-6.482,16.2-16.2,18.982-30.557,33.335a289.051,289.051,0,0,1-31.02,26.853L758.83-33.335q7.408,11.575,7.408,17.593A18.679,18.679,0,0,1,760.45-2.083Q754.663,3.7,745.4,3.7a27.745,27.745,0,0,1-9.954-1.852,27.449,27.449,0,0,1-9.491-6.482L692.623-41.669q-13.89-16.2-27.085-31.02T636.6-104.171a7.983,7.983,0,0,1-2.315,1.157,15.38,15.38,0,0,0-2.778,1.157Zm159.729-16.2q-6.482-13.427-.232-22.455t18.288-9.028q7.871,0,17.13,6.019a91.258,91.258,0,0,0,23.149,21.76q13.426,8.8,28.242,6.019a30.366,30.366,0,0,0,12.269-5.324,25.446,25.446,0,0,0,7.871-9.028A24.5,24.5,0,0,0,900.5-57.41a20.3,20.3,0,0,0-3.241-11.112,39.37,39.37,0,0,0-9.028-10.186,36.648,36.648,0,0,0-10.186-5.556,72.255,72.255,0,0,0-10.186-2.778,69.959,69.959,0,0,1-9.028-2.315q-6.945-1.852-13.89-3.935a83.833,83.833,0,0,1-13.427-5.324,69.03,69.03,0,0,1-12.5-8.1,68.373,68.373,0,0,1-11.575-12.269,56.04,56.04,0,0,1-7.871-15.047,46.608,46.608,0,0,1-2.778-15.047,58.046,58.046,0,0,1,3.7-19.908,75.267,75.267,0,0,1,9.954-18.751,67.457,67.457,0,0,1,14.815-14.815,50.783,50.783,0,0,1,18.288-8.565,93.942,93.942,0,0,1,40.511-1.389A119.822,119.822,0,0,1,921.8-199.546a36.24,36.24,0,0,1,9.723,9.723,18.213,18.213,0,0,1,3.241,9.723,17.215,17.215,0,0,1-3.009,9.954,23.5,23.5,0,0,1-7.871,7.176,22,22,0,0,1-11.112,2.778,28.121,28.121,0,0,1-13.2-3.7,80.58,80.58,0,0,0-15.51-5.324,61.328,61.328,0,0,0-19.677-1.852,27.13,27.13,0,0,0-16.2,6.25q-6.482,5.556-5.093,18.519a31.211,31.211,0,0,0,6.713,8.565,37.745,37.745,0,0,0,8.8,5.787,69.361,69.361,0,0,0,10.417,3.935q5.556,1.62,10.649,3.009a210.027,210.027,0,0,1,26.39,9.491,78.693,78.693,0,0,1,20.834,13.2,54.383,54.383,0,0,1,13.658,18.982q4.861,11.112,4.861,26.853a56.487,56.487,0,0,1-5.556,24.307,76.791,76.791,0,0,1-14.584,21.066A72.214,72.214,0,0,1,904.67,3.7,53.091,53.091,0,0,1,881.52,9.26,117.058,117.058,0,0,1,831.055-2.315Q806.517-13.89,791.7-34.261Z" transform="translate(606.332 523.037)" fill="#148108"/>
    <path id="_8541567_book_open_reading_icon" data-name="8541567_book_open_reading_icon" d="M275.064,32.021c-27.8,1.424-78.392,6.608-112.5,25.458a6.911,6.911,0,0,0-3.688,6.031V230.149c0,5.289,6.407,8.633,11.81,6.178,35.094-15.946,81.187-20.3,106.283-21.488,8.568-.408,15.229-6.608,15.229-14.041V46.08C292.2,37.97,284.408,31.544,275.064,32.021ZM129.634,57.479c-34.105-18.85-84.7-24.029-112.5-25.458C7.792,31.544,0,37.97,0,46.08V200.8c0,7.437,6.661,13.638,15.229,14.041,25.106,1.191,71.224,5.546,106.318,21.5,5.387,2.45,11.774-.888,11.774-6.164V63.428A6.777,6.777,0,0,0,129.634,57.479Z" transform="translate(861.161 289.167)" fill="#00ab47"/>
    <rect id="Rectangle_3" data-name="Rectangle 3" width="32" height="177" rx="3" transform="translate(990.332 350.037)" fill="#148108"/>
  </g>
</svg>
